<svg width="72.573mm" height="3.0423mm" version="1.1" viewBox="0 0 72.573 3.0423" xmlns="http://www.w3.org/2000/svg">
 <g transform="translate(-86.732 -26.526)">
  <g transform="translate(5.9531 -17.009)">
   <path d="m119.76 46.573c-18.474-.01476-34.187-.10454-34.918-.19951-.73108-.09497-1.7271-.39234-2.2134-.66081-.4863-.26847-1.1021-.81165-1.3684-1.2071-.26634-.39541-.48425-.7948-.48425-.88752 0-.09272.49986.05918 1.1108.33756.61094.27838 1.7297.60563 2.4861.72723.91408.14695 12.591.22162 34.819.22269l33.444.0016.35656.74772c.1961.41124.35656.79209.35656.84633 0 .05424-15.115.08654-33.589.07178z" style="fill:#d4e3ef;stroke-width:.21158"/>
   <path d="m119.89 46.572c-18.428-.01529-34.151-.10287-34.939-.19462-.91734-.10674-1.7678-.36271-2.3619-.71086-.51059-.29923-1.1271-.86557-1.3699-1.2585-.24287-.39297-.44158-.77659-.44158-.8525 0-.07591.39094.06143.86876.3052.47782.24376 1.5013.57729 2.2745.74116l1.4057.29796 67.283.0106.28082.5802c.15445.31911.33126.69921.39291.84468.0894.21101-6.6618.25886-33.393.23667z" style="fill:#c9ddf0;stroke-width:.21158"/>
   <path d="m119.87 46.571c-18.416-.01592-34.054-.09698-34.752-.18013-.69822-.08315-1.6027-.2936-2.01-.46766-.4073-.17406-1.0976-.71216-1.534-1.1958s-.79343-.96895-.79343-1.0785.51693.03739 1.1487.32664c.6318.28925 1.7029.61667 2.3803.72761.7437.1218 14.487.20219 34.694.20293l33.462.0012.44406.75263c.24424.41395.44407.79479.44407.84633 0 .05153-15.067.08067-33.483.06475z" style="fill:#b7d6f1;stroke-width:.21158"/>
   <path d="m120.82 46.567c-17.892-.01825-33.483-.09615-34.647-.17312-1.1637-.07697-2.4706-.2591-2.9043-.40475-.45664-.15337-1.1467-.67183-1.6398-1.232-.46822-.53193-.85131-1.0351-.85131-1.1181 0-.083.45226.06267 1.005.3237.55276.26104 1.5096.58038 2.1262.70966.79501.16666 10.93.23504 34.837.23504h33.716l.44406.75263c.24424.41395.44407.79479.44407.84633 0 .05153-14.639.07877-32.531.06052z" style="fill:#88c6f3;stroke-width:.21158"/>
   <path d="m119.02 46.367c-19.127-.01192-34.469-.10405-34.918-.2097-.44017-.10365-1.0743-.33013-1.4091-.50329-.33486-.17316-.9004-.66856-1.2568-1.1009-.35637-.43233-.62215-.81185-.59063-.84337.03152-.03152.67157.20121 1.4223.51717l1.365.57448 68.862.112.3212.62113c.17665.34162.32119.67346.32119.73743 0 .06396-15.353.10673-34.118.09504z" style="fill:#6fbbf4;stroke-width:.21158"/>
   <path d="m119.15 46.365c-18.716-.012751-34.427-.10176-34.912-.19779s-1.171-.32353-1.523-.50555c-.35199-.18202-.88292-.64947-1.1799-1.0388-.29694-.38931-.53989-.7727-.53989-.85198 0-.07928.30944.01595.68764.21162.3782.19567 1.1637.48262 1.7456.63767l1.0579.2819 67.956.005.29165.58185c.16041.32002.32645.65326.36897.74054.0425.08728-15.236.14826-33.952.1355z" style="fill:#54b1f6;stroke-width:.21158"/>
   <path d="m119.35 46.364c-18.828-.01378-34.312-.10883-34.949-.21455-.62894-.1044-1.4396-.37283-1.8016-.5965-.36192-.22368-.88535-.71415-1.1632-1.0899l-.50515-.68325.40248.15542c.22136.08548.97375.36306 1.672.61685l1.2695.46143 68.232.12036.64894 1.2549z" style="fill:#38a1f8;stroke-width:.21158"/>
   <path d="m119.35 46.364c-18.593-.01369-34.246-.09935-34.785-.19036s-1.2051-.28166-1.4811-.42367-.81124-.55108-1.1894-.90906c-.3782-.35798-.68764-.71061-.68764-.78364 0-.07303.69029.11227 1.534.41177l1.534.54455 68.232.12036.64894 1.2549z" style="fill:#219bf8;stroke-width:.21158"/>
  </g>
 </g>
</svg>
