<svg width="72.815mm" height="3.0249mm" version="1.1" viewBox="0 0 72.815 3.0249" xmlns="http://www.w3.org/2000/svg">
 <g transform="translate(-99.417 -51.354)">
  <g transform="translate(2.2679 17.576)">
   <path d="m135.64 36.782c-19.247-.01192-34.673-.10399-35.121-.20963-.44002-.10361-1.0843-.33541-1.4318-.51511-.3475-.1797-.91614-.71922-1.2636-1.1989s-.58555-.91849-.52899-.97505c.05656-.05656.69968.17279 1.4291.50966l1.3263.6125 69.051.11196.43004.84293.43002.84293z" style="fill:#dce3ee;stroke-width:.21151"/>
   <path d="m135.64 36.782c-19.988-.01238-34.659-.10225-35.141-.21526-.45493-.10671-1.1323-.38259-1.5052-.61307-.37292-.23048-.93954-.8142-1.2591-1.2972l-.5811-.8781.39423.16405c.21683.09023 1.0129.3881 1.769.66193l1.3748.49788 68.38.009.88195 1.6921z" style="fill:#cad4ed;stroke-width:.21151"/>
   <path d="m135.62 36.782c-19.979-.01238-34.645-.10225-35.126-.21526-.45493-.10671-1.1402-.38748-1.5228-.62393s-.89077-.74568-1.1293-1.1316c-.23852-.38594-.43367-.75078-.43367-.81078 0-.05999.59486.1416 1.3219.44798l1.3219.55706 68.951.11328.91663 1.6845z" style="fill:#bdc9ec;stroke-width:.21151"/>
   <path d="m135.64 36.789-34.32-.01427-1.0484-.28139c-.76907-.20642-1.2903-.53745-1.9564-1.2425-.49942-.52858-.90804-1.0507-.90804-1.1603s.59486.05144 1.3219.35782l1.3219.55706 68.905.21151 1.0039 1.5863-34.32-.01427z" style="fill:#b1bde9;stroke-width:.21151"/>
   <path d="m135.84 36.78c-18.754-.01275-34.495-.10172-34.981-.19772s-1.167-.32153-1.5144-.50118c-.3474-.17965-.92574-.68343-1.2852-1.1195s-.65355-.8611-.65355-.94449c0-.08339.49968.07607 1.1104.35435.61072.27828 1.7291.60542 2.4852.72697.91364.14688 12.56.22155 34.719.22261l33.344.0016.87354 1.4805z" style="fill:#748ce6;stroke-width:.21151"/>
   <path d="m135.97 36.778c-18.593-.0136-34.31-.10864-34.926-.21119-.61616-.10256-1.3928-.32739-1.7259-.49963-.33308-.17224-.89706-.66676-1.2533-1.0989-.35624-.43218-.62306-.81043-.59292-.84056.03013-.03013.71754.20251 1.5276.51699l1.4728.57177 68.569.11318.28986.57793c.15942.31786.32463.64931.36714.73656.0425.08725-15.135.1475-33.728.1339z" style="fill:#5172e4;stroke-width:.21151"/>
   <path d="m136.08 36.777c-18.535-.01451-34.176-.09736-34.758-.1841-.58164-.08674-1.4019-.30272-1.8228-.47994-.4209-.17722-1.0158-.65063-1.3219-1.052s-.55665-.78114-.55665-.84388c0-.06274.59486.1366 1.3219.44298l1.3219.55706 68.781.11316.28986.57794c.15942.31787.32463.64932.36714.73657.0425.08725-15.088.14676-33.623.13224z" style="fill:#405ce1;stroke-width:.21151"/>
   <path d="m136.48 36.774c-18.291-.01579-33.928-.09963-34.748-.18631-.82085-.08667-1.8836-.35713-2.3616-.60101-.47805-.24388-1.0676-.72201-1.31-1.0625-.24245-.3405-.44082-.66471-.44082-.72048 0-.05577.59486.14928 1.3219.45566l1.3219.55706 68.77.11195.35153.73717.35154.73717z" style="fill:#294adf;stroke-width:.21151"/>
   <path d="m136.48 36.774c-18.291-.01579-33.929-.09976-34.752-.18659-.82266-.08683-1.8126-.32174-2.1999-.52202-.3873-.20028-.97532-.66101-1.3067-1.0238s-.60252-.73609-.60252-.82948.30933-.0098.6874.18584c.37807.1956 1.1633.48245 1.7449.63744l1.0575.2818 67.921.005.35301.74027.35302.74027z" style="fill:#0127db;stroke-width:.21151"/>
  </g>
 </g>
</svg>
