<svg width="72.699mm" height="2.9592mm" version="1.1" viewBox="0 0 72.699 2.9592" xmlns="http://www.w3.org/2000/svg">
 <g transform="translate(-74.078 -34.581)">
  <path d="m112.41 37.526c-27.4-.0114-34.578-.06983-35.39-.2881-.60546-.16278-1.3211-.56497-1.7649-.99183-.41054-.39491-.84165-.89299-.95802-1.1068s-.16507-.43534-.10821-.4922c.05686-.05686.42202.06147.81147.26295.38945.20149 1.1847.49334 1.7672.64855l1.0591.28222 68.09.005.43225.84726.43224.84726-34.371-.0143z" style="fill:#d0deef;stroke-width:.21182"/>
  <path d="m112.41 37.518c-18.904-.01192-34.657-.0913-35.007-.17638-.3495-.08508-.93665-.31163-1.3048-.50344-.36814-.19181-.96387-.70606-1.3239-1.1428-.35998-.43672-.65451-.86096-.65451-.94275 0-.08179.59573.10673 1.3239.41894l1.3239.56766 69.152.1109.86194 1.6895z" style="fill:#b4d0ef;stroke-width:.21182"/>
  <path d="m112.61 37.517c-18.783-.01276-34.549-.10187-35.035-.19801s-1.1687-.322-1.5166-.50192c-.34791-.17991-.9271-.68443-1.2871-1.1212-.35998-.43672-.65451-.86239-.65451-.94594 0-.08355.52953.08228 1.1767.36851.64721.28623 1.8148.6127 2.5947.7255.86458.12505 14.438.20877 34.779.2145l33.361.0094.7324 1.4723z" style="fill:#94c2f1;stroke-width:.21182"/>
  <path d="m112.61 37.517c-18.782-.01276-34.546-.10187-35.032-.19801s-1.1723-.32389-1.5247-.50611-.86984-.64119-1.1499-1.0199c-.28008-.37874-.57426-.80401-.65373-.94504s.35922-.02688.97488.25365c.61565.28053 1.7389.60966 2.4962.7314.91498.14709 12.578.22187 34.77.22293l33.393.0016.87482 1.4827z" style="fill:#8db8f0;stroke-width:.21182"/>
  <path d="m112.71 37.522c-25.843-.013476-34.323-.079638-35.207-.27469-.64074-.14132-1.3756-.3729-1.633-.51463-.25739-.14173-.69608-.5662-.97488-.94325-.2788-.37706-.57192-.80094-.65139-.94197s.35922-.02688.97488.25365c.61565.28053 1.7389.60966 2.4962.7314.91498.14709 12.578.22187 34.77.22293l33.393.0016.87482 1.4827-34.042-.01775z" style="fill:#74aef1;stroke-width:.21182"/>
  <path d="m112.92 37.514c-18.607-.014207-34.402-.10872-35.101-.21004-.83132-.1205-1.5519-.3863-2.0833-.76848-.44682-.32135-1.0034-.89266-1.2368-1.2696l-.42439-.68531 1.1464.52483c.63051.28866 1.6528.62088 2.2718.73826.72635.13775 13.051.21344 34.754.21344h33.629l.87482 1.4827z" style="fill:#5ba2f2;stroke-width:.21182"/>
  <path d="m112.92 37.514c-18.607-.014533-34.309-.096782-34.894-.18277-.58495-.08599-1.4428-.35052-1.9063-.58784-.46354-.23732-1.0573-.72312-1.3194-1.0795-.26212-.35643-.47659-.69618-.47659-.75501 0-.05883.42301.07437.94002.29598.51701.22162 1.4877.50418 2.1571.62792.82609.15271 12.017.22498 34.836.22498h33.619l.87482 1.4827z" style="fill:#4a98f2;stroke-width:.21182"/>
  <path d="m112.82 37.515c-18.552-.01362-34.235-.10861-34.851-.21108-.61547-.10248-1.4733-.36775-1.9063-.58951-.43302-.22175-1.0018-.69481-1.2639-1.0512-.26212-.35643-.47659-.69618-.47659-.75501 0-.05883.40787.06788.90637.28156.4985.21368 1.4087.49625 2.0227.62792.80354.17233 10.578.2394 34.885.2394h33.769l.32316.62493c.17774.34371.32316.67732.32316.74136 0 .06403-15.179.10528-33.732.09166z" style="fill:#388df2;stroke-width:.21182"/>
  <path d="m113.37 37.511c-18.271-.015818-33.887-.10171-34.703-.19088-.81549-.08916-1.7687-.27292-2.1182-.40835-.3495-.13543-.90577-.50229-1.2362-.81525-.3304-.31296-.68455-.72342-.78701-.91213-.14703-.27081.09113-.22617 1.1303.21182l1.3165.55492 68.881.11212.29055.57939c.15981.31866.32539.65088.36797.73825.0426.08737-14.872.14592-33.142.1301z" style="fill:#056ff2;stroke-width:.21182"/>
 </g>
</svg>
