<svg width="22.482mm" height="24.175mm" version="1.1" viewBox="0 0 22.482 24.175" xmlns="http://www.w3.org/2000/svg"><g transform="translate(-134.06 -41.379)"><path d="m139.5 45.602v14.573c-1.6373-0.38988-3.3916-0.17023-4.6234 1.0782-1.3673 1.3857-0.99928 3.6508 1.033 4.1186 6.9808 1.6064 5.28-7.8565 5.28-11.955 0-0.97788-0.32098-2.6731 0.21708-3.5318 0.57016-0.9099 2.4146-1.0506 3.3734-1.2763 3.2223-0.75876 6.6117-1.3076 9.9265-1.3168v10.771c-1.383-0.09779-2.7938-0.15059-4.0038 0.66169-1.3244 0.88958-2.0461 2.9066-0.59749 4.0475 1.9202 1.5124 5.5979 0.45936 6.2024-1.9635 0.47837-1.9175 0.0885-4.363 0.0885-6.336v-13.094c-5.9542 0.75314-11.173 2.6588-16.896 4.224m15.207-2.112v2.112l-13.517 2.7456c0.0228-1.9131 1.5822-2.0761 3.168-2.6048 3.3066-1.1024 6.8478-2.1025 10.349-2.2528z" style="fill:#f27266"/></g></svg>
