<svg width="61.87mm" height="2.1759mm" version="1.1" viewBox="0 0 61.87 2.1759" xmlns="http://www.w3.org/2000/svg">
 <g transform="translate(-97.028 -35.738)">
  <path d="m139.88 37.912c-9.996.01354-20.796-.0527-24-.14718-3.2041-.09449-8.5426-.27605-11.863-.40347s-6.252-.28802-6.5142-.3569c-.28402-.07462-.47665-.28858-.47665-.52945 0-.23543.21949-.48767.52564-.60407.32051-.12186 6.9134-.1645 16.895-.10927 9.0029.04982 20.373.19338 25.266.31904s10.963.24868 13.488.2734l4.591.04494.55202.51904.55201.51904-.42067.22514c-.28657.15337-6.2141.23298-18.595.24975z" style="fill:#cbabaa;stroke-width:.21184"/>
  <path d="m144.48 37.812c-7.6317.04862-18.166.02462-23.409-.05335-5.2431-.07797-12.581-.25929-16.306-.40294-3.7252-.14365-6.9972-.34637-7.2711-.4505-.30763-.11696-.47133-.32756-.4283-.55101.0399-.20721.34055-.41437.70391-.48503.34884-.06784 9.6429-.0459 20.654.04875s24.378.2417 29.706.32677l9.6863.15467.47402.4743c.29566.29584.3974.54496.27041.66212-.11198.1033-6.4477.2276-14.079.27623z" style="fill:#b59493;stroke-width:.21184"/>
  <path d="m144.48 37.811c-7.6317.04825-18.166.02359-23.409-.05479-5.2431-.07838-12.513-.25756-16.155-.39816s-6.8772-.32386-7.1889-.40723c-.31172-.08337-.59526-.24171-.63008-.35187-.03483-.11016.02278-.33649.12801-.50294l.19133-.30265 15.958.0497c8.7771.02733 19.247.13732 23.267.24442s10.169.19763 13.664.20117c3.6136.0037 6.6882.09889 7.1268.22073.42432.11786.89217.35969 1.0397.53741.15845.19092.1895.3954.0759.4998-.10575.09718-6.4364.21616-14.068.26441z" style="fill:#9b7778;stroke-width:.21184"/>
  <path d="m137.9 37.691c-11.35.01138-23.163-.05724-26.251-.15249s-7.5357-.26043-9.8846-.36707c-2.3489-.10664-4.3657-.25261-4.4818-.32437-.11612-.07176-.16362-.31214-.10555-.53418.07888-.30163.33533-.42209 1.0143-.47644.49979-.04001 8.9992-.0024 18.888.08363 9.8884.086 23.038.23076 29.222.32167l11.243.1653.58045.38032c.31924.20918.54275.49341.49669.63163-.0638.19136-5.0064.25624-20.721.27199z" style="fill:#845f61;stroke-width:.21184"/>
  <path d="m137.9 37.682c-11.35.0063-21.352-.01433-22.226-.04576-.87386-.03143-4.83-.15835-8.7915-.28205-3.9615-.1237-7.7558-.2828-8.4318-.35357l-1.2291-.12867.06395-.44804c.04974-.34849.25223-.47184.91132-.55513.46606-.0589 8.9028-.03657 18.748.04962 9.8455.08619 23.001.23326 29.234.32682l11.334.17012.59039.39233c.32472.21578.5551.49822.51197.62764-.0567.17027-5.7827.23846-20.716.2467z" style="fill:#6c4549;stroke-width:.21184"/>
  <path d="m138.66 37.731c-10.719-.02104-20.157-.06366-20.973-.09473-.8156-.03106-4.9624-.1574-9.2152-.28076s-8.4791-.28293-9.3918-.35462c-1.1513-.09043-1.6952-.22317-1.7758-.43345-.06397-.16671-.01999-.39943.09774-.51716.13697-.13697 3.0651-.20981 8.1312-.20227 4.3544.0065 16.544.11255 27.089.23572s20.511.27721 22.148.34232l2.9762.11839 1.0386.80448-.31777.21016c-.20542.13586-7.2078.19664-19.807.17191z" style="fill:#60383c;stroke-width:.21184"/>
  <path d="m138.76 37.73c-10.661-.02166-20.146-.0644-21.078-.09498-.93212-.03057-5.079-.15671-9.2152-.2803-4.1363-.12359-8.3152-.28383-9.2866-.35609-1.2383-.09212-1.8007-.22144-1.8818-.43276-.06361-.16576-.02305-.39398.09012-.50715.12599-.12599 3.3196-.20469 8.2371-.20299 4.4172.0015 16.659.10411 27.203.22796 10.545.12385 20.435.27901 21.978.3448l2.8059.11961.54851.43146c.42307.33278.48387.47245.26586.61064-.15546.09855-9.0053.16145-19.666.13979z" style="fill:#481f24;stroke-width:.21184"/>
  <path d="m138.8 37.738c-10.683-.021-19.853-.06311-20.378-.09356-.52431-.03046-4.8618-.16706-9.6389-.30357-4.7771-.13651-9.3042-.3089-10.06-.38309-1.0299-.10107-1.3911-.22117-1.4403-.47897-.03616-.18924.09948-.40747.30142-.48497.20194-.07749 3.9007-.13938 8.2194-.13754 4.3187.0018 16.384.10409 26.812.2272 10.428.12312 20.32.27834 21.983.34495l3.0228.1211.45342.36716c.25483.20635.38679.47497.30129.61331-.11405.18453-5.0148.23659-19.576.20797z" style="fill:#3c1218;stroke-width:.21184"/>
 </g>
</svg>
