<svg width="61.207mm" height="2.1318mm" version="1.1" viewBox="0 0 61.207 2.1318" xmlns="http://www.w3.org/2000/svg">
 <g transform="translate(-104.42 -47.502)">
  <path d="m106.08 49.57c-.84434.10054-1.3499.07208-1.5049-.08472-.12838-.12986-.18959-.46539-.13602-.74562.0536-.28023.34504-.67178.64772-.8701l.55032-.36058 6.7907.18892c3.7349.10391 16.613.20589 28.618.22664 12.005.02074 22.447.11762 23.204.21529l1.3774.17757v.41796c0 .32787-.20556.45611-.95361.59493-.52448.09734-4.1005.19516-7.9467.21739-3.8462.02223-16.529.0023-28.184-.04432-11.655-.04661-21.763-.01661-22.463.06665z" style="fill:#e3c5c2;stroke-width:.21191"/>
  <path d="m105.84 49.578c-.57172.07863-1.109.07345-1.194-.01152-.085-.08497-.15448-.40299-.15448-.70671 0-.41397.18606-.65243.74314-.95244l.74315-.40021 6.6208.19309c3.6414.1062 16.014.19521 27.494.1978 11.48.0026 21.892.08509 23.138.18334 1.4474.11416 2.3007.27235 2.3644.43833.0548.14284.03.37238-.0551.5101-.0992.16041-1.4058.32963-3.6359.47086-2.1972.13915-6.6464.16242-12.064.0631-4.7203-.08655-16.318-.15092-25.772-.14303-9.4542.0079-17.657.07867-18.229.1573z" style="fill:#cbabaa;stroke-width:.21191"/>
  <path d="m157.36 49.567c-2.9138.04702-7.5864.01194-10.384-.07794-2.7972-.08989-9.9969-.17687-15.999-.1933-6.0024-.01643-14.418.03335-18.701.11061l-7.7878.14048v-.61984c0-.49201.15423-.7029.74792-1.0226l.74792-.40278 9.053.2628c5.1839.15048 16.887.24813 27.383.22848 10.082-.01888 19.379.04627 20.661.14477l2.331.1791.0636.44517.0636.44517-1.441.13721c-.79255.07547-3.825.17568-6.7388.2227z" style="fill:#af8e8d;stroke-width:.21191"/>
  <path d="m157.47 49.564c-2.8539.04849-7.4776.01497-10.275-.07449s-10.045-.17787-16.105-.19647c-6.0607-.0186-14.524.03117-18.807.11059l-7.7878.1444v-.54542c0-.39846.20725-.6735.7692-1.0208l.76921-.4754 8.9258.25981c5.031.14644 16.924.24601 27.256.22819 10.082-.01739 19.427.048 20.767.14532l2.437.17695.0636.44538.0636.44538-1.444.1342c-.79418.07381-3.779.17387-6.6329.22236z" style="fill:#9b7778;stroke-width:.21191"/>
  <path d="m157.89 49.561c-1.8066.04647-5.7163.01317-8.6884-.074s-10.982-.18053-17.801-.20747c-6.8183-.02694-15.663.02253-19.655.10995l-7.258.15893v-.53846c0-.35032.20361-.67654.58275-.93367l.58276-.39522 2.6489.04297c1.4569.02363 9.2764.13337 17.377.24385 9.8192.13393 15.929.12928 18.33-.01395 2.5537-.15228 6.1628-.1401 12.397.04187 4.8369.14118 8.8785.33628 8.9814.43354.10289.09726.13387.31549.0688.48496-.0874.22771-.66156.34128-2.2002.43517-1.1451.06988-3.5601.16507-5.3666.21154z" style="fill:#845f61;stroke-width:.21191"/>
  <path d="m158.63 49.531c-2.2145.05693-6.3626.03561-9.2182-.04738s-10.866-.17356-17.801-.20127c-6.9348-.0277-15.875.02099-19.867.1082l-7.258.15857v-.53846c0-.35032.20361-.67654.58275-.93367l.58276-.39522 2.5429.0393c1.3986.02162 9.2658.1321 17.483.24551 10.143.14 16.062.13611 18.436-.01213 2.4858-.15522 5.9774-.14598 12.079.03196 4.7203.13766 8.7547.30046 8.9653.36178.21483.06255.35322.26631.31528.46423-.0515.26869-.39522.384-1.4424.48391-.75617.07214-3.1867.17775-5.4012.23468z" style="fill:#6c4549;stroke-width:.21191"/>
  <path d="m111.22 49.315-6.7282.08814v-.37561c0-.20659.21456-.58178.4768-.83378l.4768-.45816 8.4765.13878c4.662.07633 12.672.19048 17.801.25368 5.4688.06739 10.77.02428 12.821-.10425 2.39-.14979 6.0449-.15149 11.549-.0054 4.429.11757 8.3626.26113 8.7414.31902.40831.0624.68871.22911.68871.40948 0 .16732-.26224.37756-.58276.4672-.32051.08964-4.3018.16297-8.8473.16297-4.5455 0-14.987-.0338-23.204-.07512-8.2169-.04131-17.967-.03546-21.668.01302z" style="fill:#60383c;stroke-width:.21191"/>
  <path d="m111.01 49.311c-4.977.06086-6.5163.01951-6.5163-.17502 0-.14009.0579-.40555.12862-.58991.0707-.18436.26147-.3352.42383-.3352s.29519-.11086.29519-.24636c0-.18552 2.0802-.21029 8.4235-.1003 4.6329.08033 12.619.19891 17.748.26352 5.4379.06851 10.87.02637 13.033-.10109 2.5101-.14794 6.2079-.1511 11.443-.0098 4.2541.11482 8.14.25897 8.6354.32034.57528.07127.90062.21825.90062.40686 0 .16998-.33722.3668-.79467.46382-.43707.09269-4.3707.16854-8.7414.16854-4.3707 0-14.813-.03264-23.204-.07253-8.3917-.03989-18.19-.03668-21.774.0071z" style="fill:#481f24;stroke-width:.21191"/>
  <path d="m110.99 49.309c-3.4776.04052-6.3684 2e-5-6.424-.08999-.0556-.09001-.0484-.32975.016-.53276.0644-.203.42057-.5034.79142-.66756l.67428-.29846 7.8576.1448c4.3217.07964 12.197.19668 17.5.26008 5.4831.06555 11.15.02392 13.139-.09652 2.3018-.13942 6.1758-.14205 11.337-.0077 4.3124.11226 8.246.25459 8.7414.31629.57498.07162.90062.21895.90062.40747 0 .16998-.33722.3668-.79467.46382-.43707.0927-4.3707.16854-8.7414.16854-4.3707 0-14.86-.03188-23.31-.07084s-18.209-.03769-21.686.0028z" style="fill:#3c1218;stroke-width:.21191"/>
 </g>
</svg>
