<svg width="82.344mm" height="2.7579mm" version="1.1" viewBox="0 0 82.344 2.7579" xmlns="http://www.w3.org/2000/svg"><g transform="translate(-57.149 -74.181)"><path d="m88.08 76.757c-1.513-0.08566-8.968-0.11579-16.567-0.06696l-13.816 0.08878-0.33211-0.79484c-0.22533-0.53929-0.27353-0.95664-0.14993-1.2981l0.18218-0.50328 5.0785-0.0017c2.7932-9.31e-4 9.9824 0.065 15.976 0.14653 11.267 0.15326 17.539 0.16346 40.416 0.06572 13.212-0.05645 18.005 0.04551 19.891 0.42308 1.3713 0.27455 0.56815 0.56021-1.1204 0.39849-0.85244-0.08165-1.1646-0.05896-0.88986 0.06466 0.23276 0.10474 0.91749 0.19712 1.5216 0.2053 0.60413 0.0082 1.1534 0.10375 1.2205 0.21237 0.13687 0.22146-5.2551 0.37786-18.718 0.54294-4.8298 0.05922-11.073 0.25013-13.874 0.42423-5.2329 0.32531-13.953 0.36831-18.819 0.0928z" style="stroke-width:.2116"/></g></svg>
