<svg width="97.212mm" height="19.413mm" version="1.1" viewBox="0 0 97.212 19.413" xmlns="http://www.w3.org/2000/svg">
 <g transform="translate(-50.519 -44.212)">
  <path d="m94.463 63.559c-.78909-.19265-2.0121-.78217-2.0121-.96987 0-.10267.24395-.66808.5421-1.2565.42269-.83414.62098-1.0368.90016-.92001 1.3429.56176 1.535.5988 2.0913.40319.32093-.11286.71991-.44823.88663-.74525.2863-.51007.17667-.83317-1.9753-5.8218-1.2532-2.9049-2.3261-5.4008-2.3843-5.5465-.07967-.19929.3318-.26382 1.6642-.261l1.77.0038 1.0453 2.5908c.5749 1.425 1.2448 3.0468 1.4886 3.6042l.44337 1.0134 2.9532-7.2099 1.5356-.003c.88449-.0017 1.5356.08683 1.5356.20883 0 .11649.14297.2118.3177.2118.2251 0 .31906-.23152.32236-.79426.01-1.7091 1.3645-3.4939 2.8653-3.7754 1.0117-.1898 3.4309-.01604 3.7137.26674.36541.36541-.41992 2.6625-.85293 2.4948-1.3402-.51901-2.2352-.11384-2.4736 1.1198l-.13301.68836h2.8064v2.3298h-2.5416v8.2603h-3.3888v-8.2603l-1.5885.0072-2.184 5.1326c-2.24 5.2641-2.7986 6.2089-4.035 6.8252-.73136.36456-2.5587.58686-3.312.40293zm-40.059-4.1266c-1.2943-.37512-2.6782-1.5101-3.2994-2.7058-.49707-.9568-.5895-1.3914-.58559-2.7534.0056-1.9635.41885-2.9894 1.6519-4.1011 1.3172-1.1876 2.1999-1.5021 4.2739-1.5226 1.5661-.01547 1.9582.05975 3.0139.57813 2.141 1.0514 2.9166 2.4446 2.9166 5.2393 0 3.4202-2.3219 5.5321-6.0218 5.4771-.70692-.01051-1.5841-.10571-1.9494-.21156zm3.7168-2.893c2.2392-1.6399 1.3395-5.3602-1.3767-5.6928-1.8097-.22156-3.3606 1.4172-3.1971 3.3783.0993 1.1911.6241 2.0019 1.642 2.5369.87442.45963 2.1307.36432 2.9318-.22244zm57.205 2.9256c-1.127-.34406-2.3166-1.094-2.952-1.8609-2.0141-2.4309-1.4652-6.4627 1.1228-8.2462 2.4011-1.6547 6.2021-1.3864 8.1646.57617 1.1132 1.1132 1.492 2.1584 1.4916 4.1162-.00021 1.445-.0854 1.8503-.57823 2.7534-.63009 1.1546-2.0666 2.2706-3.3988 2.6406-.8924.24786-3.0675.25951-3.85.02062zm3.5823-2.9256c2.2392-1.6399 1.3395-5.3602-1.3767-5.6928-1.8097-.22156-3.3606 1.4172-3.1971 3.3783.0993 1.1911.6241 2.0019 1.642 2.5369.87443.45963 2.1307.36432 2.9318-.22244zm8.5676 2.893c-1.2943-.37512-2.6782-1.5101-3.2994-2.7058-.49707-.9568-.5895-1.3914-.58559-2.7534.006-1.9635.41885-2.9894 1.6519-4.1011 1.3229-1.1927 2.1989-1.5032 4.2739-1.515 1.3824-.0078 2.0216.09086 2.7534.42527 2.3646 1.0804 3.177 2.434 3.177 5.2934 0 1.7361-.054 1.9889-.61313 2.8706-.7645 1.2055-1.8256 2.0281-3.1175 2.4169-1.1033.33205-3.2147.3665-4.2406.06918zm3.7168-2.893c2.2392-1.6399 1.3395-5.3602-1.3767-5.6928-1.8097-.22156-3.3606 1.4172-3.1971 3.3783.0993 1.1911.6241 2.0019 1.642 2.5369.87443.45963 2.1307.36432 2.9318-.22244zm8.0668 2.8467c-1.0396-.32767-2.8125-2.1635-3.1312-3.2424-.43486-1.4718-.32517-3.6338.24667-4.8619 1.2363-2.6551 4.722-3.8061 7.3607-2.4307l.81889.42683v-4.8646h3.177v15.038h-1.4826c-1.466 0-1.4826-.0063-1.4826-.56642v-.56642l-.47655.43118c-.97336.88069-3.3154 1.1771-5.0303.63656zm4.156-2.5799c.63901-.4187 1.3416-1.862 1.3416-2.756 0-.894-.70258-2.3373-1.3416-2.756-.84081-.55092-2.0282-.6139-2.8851-.15301-.84879.45652-1.6944 1.9083-1.6944 2.909 0 1.025.84754 2.4873 1.6944 2.9234.85988.4428 2.0602.37317 2.8851-.16738zm-80.828-4.874v-7.519h3.177v2.4534c0 1.3494.07148 2.4166.15885 2.3716 1.4276-.73485 1.9979-.8882 3.3359-.89686 2.049-.01327 3.1632.60373 3.9713 2.1992.57237 1.13.58245 1.2172.58245 5.0303v3.8804h-3.177l-.0013-2.9123c-.000636-1.6018-.09924-3.2654-.2191-3.6969-.60591-2.1819-3.4523-2.204-4.359-.03383-.2011.4813-.29204 1.6244-.29204 3.671v2.972h-3.177zm12.073 2.0121v-5.5068h1.4826c1.4507 0 1.4826.0117 1.4826.54393v.54393l.61319-.43663c1.5846-1.1283 4.2342-1.0377 5.7733.19742.68421.5491.8051.58315 1.0448.29427.44941-.54151 1.8544-1.1589 2.9261-1.2858 1.3348-.15808 3.1468.37474 3.8809 1.1412 1.0855 1.1333 1.2232 1.8189 1.2232 6.0903v3.9251h-3.1335l-.0802-3.4418c-.08731-3.7469-.20934-4.1822-1.2989-4.6335-.84416-.34966-2.006-.01872-2.5624.72991-.39908.53688-.45072.93784-.51142 3.9713l-.06753 3.3741h-3.1479v-3.0668c0-3.4201-.26678-4.5339-1.1864-4.9529-.74569-.33976-1.6018-.29855-2.1777.10482-.88384.61907-1.0838 1.5113-1.0838 4.837v3.0779h-3.177z" style="fill:#f7c846;stroke-width:.2118"/>
 </g>
</svg>
