<svg width="56.873mm" height="3.4157mm" version="1.1" viewBox="0 0 56.873 3.4157" xmlns="http://www.w3.org/2000/svg">
 <g transform="translate(-109.52 -83.684)">
  <path d="m154.1 86.882c-5.2584-.37789-20.927-.87675-36.808-1.1719-4.2734-.07942-7.7699-.21184-7.7699-.29427 0-.08243 3.544-.2148 7.8756-.29416 16.379-.30008 30.694-.76064 37.599-1.2097l3.5068-.22805 1.4363.44362c.78994.24399 2.5656.60212 3.9459.79584s2.5096.41562 2.5096.49309c0 .07748-1.1474.30323-2.5497.50167s-3.1387.54545-3.8585.77113l-1.3088.41033-1.1628-.02787c-.63956-.01533-2.1765-.10072-3.4155-.18976z" style="fill:#c57414;stroke-width:.21142"/>
 </g>
</svg>
