<svg width="56.807mm" height="3.418mm" version="1.1" viewBox="0 0 56.807 3.418" xmlns="http://www.w3.org/2000/svg">
 <g transform="translate(-115.02 -39.395)">
  <path d="m159.56 42.598c-5.3787-.38646-20.721-.87586-36.965-1.1791-4.2144-.07869-7.6212-.21004-7.5706-.29191.0506-.08186 3.594-.21317 7.8742-.29179 16.476-.30263 30.462-.75446 37.526-1.2123l3.5092-.22744 1.4372.44391c.79047.24415 2.5673.60252 3.9486.79638s2.5113.41462 2.5113.4906c0 .07597-1.1329.29714-2.5176.49148s-3.1222.54286-3.8611.77448l-1.3434.42112-1.1636-.02789c-.63999-.01534-2.1633-.09972-3.3851-.1875z" style="fill:#a66a9b;stroke-width:.21157"/>
 </g>
</svg>
