<svg width="56.991mm" height="3.4285mm" version="1.1" viewBox="0 0 56.991 3.4285" xmlns="http://www.w3.org/2000/svg">
 <g transform="translate(-116.09 -52.076)">
  <path d="m160.58 55.285c-5.4363-.36384-17.942-.74983-37.871-1.1689-3.6414-.07657-6.6207-.21079-6.6207-.29827 0-.08747 3.027-.22221 6.7266-.29941 20.844-.43496 31.792-.77735 38.621-1.2078l3.7166-.23426 1.4486.44743c.79674.24609 2.5803.60626 3.9634.80038 1.3832.19412 2.5148.43175 2.5148.52805 0 .0963-.0921.1751-.20458.1751-.87295 0-5.1633.73605-6.2182 1.0668l-1.3102.41078-1.1652-.02843c-.64089-.01563-2.2616-.1018-3.6017-.19149z" style="fill:#704ecb;stroke-width:.21186"/>
 </g>
</svg>
