<svg width="69.946mm" height="3.5266mm" version="1.1" viewBox="0 0 69.946 3.5266" xmlns="http://www.w3.org/2000/svg"><g transform="translate(-62.363 -113.91)"><path d="m70.83 117.09c-1.2451-0.43961-6.0742-1.2205-7.5577-1.2221-1.6168-2e-3 -0.94191-0.35809 0.95131-0.50229 2.3809-0.18134 5.3544-0.69667 6.7637-1.1722 0.93047-0.31397 1.457-0.34752 3.2767-0.20877 7.648 0.58315 38.745 1.449 52.482 1.4612 2.9068 3e-3 5.4084 0.0829 5.5591 0.17852 0.15069 0.0956-4.8437 0.23867-11.099 0.31795-20.396 0.25852-44.313 0.98941-48.58 1.4846-0.34881 0.0405-1.1574-0.11112-1.7969-0.3369z" style="stroke-width:.2114"/></g></svg>
