<svg width="70.296mm" height="3.6605mm" version="1.1" viewBox="0 0 70.296 3.6605" xmlns="http://www.w3.org/2000/svg"><g transform="translate(-56.722 -70.578)"><path d="m114.72 74.043c-7.0541-0.57628-39.219-1.47-52.971-1.4718-3.3822-4.44e-4 -5.1096-0.07359-5.0236-0.21272 0.08162-0.13206 2.1058-0.21234 5.3667-0.21283 13.88-0.0021 46.053-0.89838 52.996-1.4764 1.8685-0.15557 2.311-0.12754 3.1807 0.20144 1.2208 0.46179 4.3647 1.0084 6.8945 1.1987 1.0205 0.07677 1.8554 0.20686 1.8554 0.28907 0 0.08221-0.83493 0.21307-1.8554 0.2908-2.4419 0.18599-5.378 0.70164-6.8848 1.2092-0.66691 0.22463-1.2871 0.39507-1.3783 0.37875-0.0911-0.01632-1.0722-0.10373-2.1802-0.19424z" style="stroke-width:.21204"/></g></svg>
